<svg width="22" height="22" viewBox="0 0 22 22" fill="none" xmlns="http://www.w3.org/2000/svg">
<g id="icn 10">
<path id="Oval 7" fill-rule="evenodd" clip-rule="evenodd" d="M5 19C7.76142 19 10 16.7614 10 14C10 11.2386 7.76142 9 5 9C2.23858 9 0 11.2386 0 14C0 16.7614 2.23858 19 5 19Z" fill="#FA3F40"/>
<path id="Shape" fill-rule="evenodd" clip-rule="evenodd" d="M10.8416 10.947C13.9465 10.947 16.4377 8.51043 16.4377 5.47352C16.4377 2.4366 13.9465 0 10.8416 0C7.73665 0 5.24548 2.47191 5.24548 5.50883C5.24548 8.51043 7.73665 10.947 10.8416 10.947ZM10.8416 0.741573C13.5133 0.741573 15.7156 2.89567 15.7156 5.50883C15.7156 8.12199 13.5133 10.2408 10.8416 10.2408C8.16989 10.2408 5.96756 8.12199 5.96756 5.50883C5.96756 2.89567 8.16989 0.741573 10.8416 0.741573Z" fill="white"/>
<path id="Shape_2" fill-rule="evenodd" clip-rule="evenodd" d="M2.8879 22H21.0842C21.5536 22 21.9146 21.5762 21.8424 21.1172C20.651 15.8909 16.7157 12.077 11.9861 12.077C7.25646 12.077 3.32115 15.8909 2.16583 21.1172C2.05751 21.5762 2.41855 22 2.8879 22ZM11.9861 12.7833C16.2463 12.7833 20.0011 16.2793 21.1203 21.2584C21.1203 21.2584 21.1203 21.2584 21.1203 21.2937H21.0842H2.8879H2.8518C2.8518 21.2937 2.8518 21.2937 2.8518 21.2584C3.97102 16.2793 7.72581 12.7833 11.9861 12.7833Z" fill="white"/>
</g>
</svg>
