<svg width="46" height="62" viewBox="0 0 46 62" fill="none" xmlns="http://www.w3.org/2000/svg">
<g id="icn 5">
<g id="2">
<path id="Path 4" fill-rule="evenodd" clip-rule="evenodd" d="M11.0159 20.8811C11.0159 20.8811 19.2939 21.2731 20.5119 22.4006C21.7298 23.5282 23.7203 23.636 24.3596 23.636C24.999 23.636 40.1023 21.6541 29.0927 25.5537C29.0927 25.5537 24.9667 26.2495 25.3859 30.9951C25.805 35.7406 28.4566 34.5147 27.0724 35.4229C25.6882 36.3312 16.9133 37.5952 19.3669 34.5432C21.8206 31.4912 20.0365 28.0659 20.0365 28.0659C20.0365 28.0659 18.9583 26.0378 16.9133 25.4365C14.8682 24.8352 12.3572 22.4006 12.3572 22.4006" fill="white"/>
<path id="Path 5" fill-rule="evenodd" clip-rule="evenodd" d="M38.671 54.6378C38.671 54.6378 37.1627 52.119 36.0744 51.7678C34.9861 51.4166 33.4714 51.9555 32.7176 50.5284C31.9638 49.1013 29.4057 46.1683 29.4057 46.1683C29.4057 46.1683 27.183 43.2051 25.084 47.3308C22.985 51.4565 19.8038 51.7847 19.8038 51.7847C19.8038 51.7847 15.8137 54.5573 14.1983 53.9043C12.5829 53.2513 7.37531 56.0571 7.37531 56.8884C7.37531 57.7197 7.59385 59.8624 7.59385 59.8624L38.4256 59.9614L38.671 54.6378Z" fill="white"/>
<path id="Line" d="M1 1.75H45" stroke="#030303" stroke-width="2" stroke-linecap="round"/>
<path id="Line_2" d="M1 60.25H45" stroke="#030303" stroke-width="2" stroke-linecap="round"/>
<path id="Path 3" d="M4.824 1.80225C4.824 1.80225 2.46535 22.0689 16.5272 27.7444C16.5272 27.7444 18.429 28.7222 18.2964 31.3648" stroke="#030303"/>
<path id="Path 3_2" d="M5.14571 59.8647C5.14571 59.8647 2.46535 40.2996 16.5272 34.624C16.5272 34.624 18.429 33.6462 18.2964 31.0037" stroke="#030303"/>
<path id="Path 3_3" d="M41.2404 1.76282C41.2404 1.76282 43.5378 22.0688 29.4759 27.7444C29.4759 27.7444 27.5742 28.7222 27.7068 31.3647" stroke="#030303"/>
<path id="Path 3_4" d="M40.8575 59.8647C40.8575 59.8647 43.5378 40.2996 29.4759 34.624C29.4759 34.624 27.5742 33.6462 27.7068 31.0037" stroke="#030303"/>
</g>
</g>
</svg>
