<?xml version="1.0" encoding="utf-8"?><svg xmlns="http://www.w3.org/2000/svg" xmlns:xlink="http://www.w3.org/1999/xlink"><symbol viewBox="0 0 67 50" id="icn1" xmlns="http://www.w3.org/2000/svg"><path d="M39.895 17.163h5.911m-36.448 0h5.91m9.359 0h5.91m9.358 4.898h5.911m-36.448 0h5.91m9.359 0h5.91M9.358 26.96h5.91m9.359 0h5.91M9.358 32.837h5.91m9.359 0h5.91"/><rect x="1" y="5.918" width="53.164" height="37.184" rx="3"/><path d="M9.85 1.49v8.816M45.313 1.49v8.816"/><path fill-rule="evenodd" clip-rule="evenodd" d="M54.18 48.02c5.984 0 10.835-4.824 10.835-10.775 0-5.951-4.851-10.776-10.836-10.776-5.984 0-10.836 4.825-10.836 10.776S48.195 48.02 54.18 48.02z"/><path d="M48.32 36.856l4.714 4.386 7.107-7.837"/></symbol><symbol viewBox="0 0 20 23" id="icn12" xmlns="http://www.w3.org/2000/svg"><g clip-rule="evenodd"><path fill-rule="evenodd" d="M5 19A5 5 0 1 0 5 9a5 5 0 0 0 0 10z"/><path d="M11 13a4 4 0 1 0 0-8 4 4 0 0 0 0 8z"/><path d="M11 22.026S19 13.418 19 9A8 8 0 1 0 3 9c0 4.418 8 13.026 8 13.026z"/></g></symbol><symbol viewBox="0 0 50 49" id="icn2" xmlns="http://www.w3.org/2000/svg"><path d="M2 1h14.653v14.653H2z"/><rect x="32.367" y="1" width="14.653" height="14.653" rx="3"/><path d="M9.327 16.163v13.715m30.367-13.715v13.715M30.878 8.327H17.163m13.715 31.346H17.163"/><path clip-rule="evenodd" d="M9.327 30.367l7.347 4.164v8.326L9.326 47.02 1.98 42.857v-8.326l7.347-4.164zM39.694 47.02a8.327 8.327 0 1 0 0-16.653 8.327 8.327 0 0 0 0 16.653z"/></symbol><symbol viewBox="0 0 58 48" id="icn3" xmlns="http://www.w3.org/2000/svg"><rect x="1" y="4.84" width="56" height="31.6" rx="3"/><path d="M7 .5h44A3.5 3.5 0 0 1 54.5 4v.3h-51V4A3.5 3.5 0 0 1 7 .5z"/><path fill-rule="evenodd" clip-rule="evenodd" d="M29 46.08c6.075 0 11-4.728 11-10.56 0-5.832-4.925-10.56-11-10.56s-11 4.728-11 10.56c0 5.832 4.925 10.56 11 10.56z"/><path d="M22.5 39.84h13"/><rect x="22.5" y="31.22" width="13" height="6.68" rx=".5"/><path fill-rule="evenodd" clip-rule="evenodd" d="M47 17.28c1.105 0 2-.86 2-1.92s-.895-1.92-2-1.92-2 .86-2 1.92.895 1.92 2 1.92z"/><path d="M46 11.06h11.5v8.6H46a3.5 3.5 0 0 1-3.5-3.5v-1.6a3.5 3.5 0 0 1 3.5-3.5z"/></symbol><symbol viewBox="0 0 60 61" id="icn4" xmlns="http://www.w3.org/2000/svg"><rect x="44.75" y="36.5" width="1" height="1" rx=".5"/><rect x="44.75" y="42.5" width="1" height="1" rx=".5"/><rect x="37.25" y="36.5" width="1" height="1" rx=".5"/><rect x="37.25" y="42.5" width="1" height="1" rx=".5"/><rect x="29.75" y="36.5" width="1" height="1" rx=".5"/><rect x="29.75" y="42.5" width="1" height="1" rx=".5"/><rect x="22.25" y="36.5" width="1" height="1" rx=".5"/><rect x="22.25" y="42.5" width="1" height="1" rx=".5"/><rect x="14.75" y="36.5" width="1" height="1" rx=".5"/><rect x="14.75" y="42.5" width="1" height="1" rx=".5"/><rect x="44.75" y="48.5" width="1" height="1" rx=".5"/><rect x="22.25" y="48.5" width="17" height="2" rx=".5"/><rect x="14.75" y="48.5" width="1" height="1" rx=".5"/><path fill-rule="evenodd" clip-rule="evenodd" d="M12.75 2.75c0-1.105.886-2 1.99-2h27.205c1.227 0 3.013 1.162 3.473 1.477.076.052.145.109.21.173.364.36 1.622 1.654 1.622 2.331V23.25h-34.5V2.75z"/><path d="M1.1 55.75h57.8a5.002 5.002 0 0 1-4.9 4H6a5.002 5.002 0 0 1-4.9-4zM6.75 54.75v-22.5m46.5 22.5v-22.5"/><rect x="10.25" y="23.75" width="39.5" height="8.75" rx="1.5"/><path d="M6.75 30.75H9m41.25 0h3M42.024.725v4.569h5.234"/><rect x="18.75" y="8.25" width="22.5" height="1" rx=".5"/><rect x="18.75" y="12.75" width="22.5" height="1" rx=".5"/><rect x="18.75" y="17.25" width="22.5" height="1" rx=".5"/></symbol><symbol viewBox="0 0 46 62" id="icn5" xmlns="http://www.w3.org/2000/svg"><path fill-rule="evenodd" clip-rule="evenodd" d="M11.016 20.881s8.278.392 9.496 1.52c1.218 1.127 3.208 1.235 3.848 1.235.639 0 15.742-1.982 4.733 1.918 0 0-4.126.696-3.707 5.441.419 4.746 3.07 3.52 1.686 4.428-1.384.908-10.159 2.172-7.705-.88 2.454-3.052.67-6.477.67-6.477s-1.079-2.028-3.124-2.63c-2.045-.6-4.556-3.035-4.556-3.035m26.314 32.237s-1.508-2.519-2.597-2.87c-1.088-.351-2.603.188-3.356-1.24-.754-1.427-3.312-4.36-3.312-4.36s-2.223-2.963-4.322 1.163c-2.099 4.125-5.28 4.454-5.28 4.454s-3.99 2.772-5.606 2.12c-1.615-.654-6.823 2.152-6.823 2.983 0 .832.219 2.974.219 2.974l30.832.1.245-5.324z"/><path d="M1 1.75h44M1 60.25h44M4.824 1.802S2.465 22.07 16.527 27.744c0 0 1.902.978 1.77 3.62"/><path d="M5.146 59.865S2.466 40.3 16.527 34.624c0 0 1.902-.978 1.77-3.62M41.24 1.763s2.298 20.306-11.764 25.981c0 0-1.902.978-1.77 3.62"/><path d="M40.858 59.865s2.68-19.565-11.382-25.241c0 0-1.902-.978-1.77-3.62"/></symbol><symbol viewBox="0 0 61 61" id="icn6" xmlns="http://www.w3.org/2000/svg"><rect x="1" y="1" width="58" height="43" rx="3"/><rect x="8.5" y="56.5" width="43" height="3.5" rx="1"/><path d="M22.61 43.938s-.784 10.34-7.61 12.294m22.65-12.294S38.173 54.365 45 56.32M1.125 35.625h58.5"/><path fill-rule="evenodd" clip-rule="evenodd" d="M31 28.5a8.5 8.5 0 1 0 0-17 8.5 8.5 0 0 0 0 17z"/><path clip-rule="evenodd" d="M34.306 20.172l-4.431 2.846v-5.693l4.43 2.847z"/></symbol><symbol viewBox="0 0 45 60" id="icn7" xmlns="http://www.w3.org/2000/svg"><path fill-rule="evenodd" clip-rule="evenodd" d="M26.97 24.05l.702.679.701-.727 2.872 2.773-.702.726.77.743-14.629 15.148-4.233 1.322a1 1 0 0 1-1.264-1.213l1.154-4.303L26.97 24.05z"/><path d="M4 4h36a3 3 0 0 1 3 3v42.24l-3.987 5.512a3 3 0 0 1-.952.852L32.066 59H4a3 3 0 0 1-3-3V7a3 3 0 0 1 3-3z"/><path fill-rule="evenodd" clip-rule="evenodd" d="M30.986 60V47.985h13.077v1.073c-1.028 2.967-2.396 5.391-4.056 7.036C38.64 57.447 33.434 60 32.134 60h-1.148z"/><rect x="11" y="21" width="12" height="1" rx=".5"/><rect x="11" y="16" width="22" height="1" rx=".5"/><rect x="11" y="11" width="22" height="1" rx=".5"/><rect x="12" width="20" height="6" rx="2"/></symbol><symbol viewBox="0 0 60 50" id="icn8" xmlns="http://www.w3.org/2000/svg"><path d="M47 17h4v18h-4zM51 35.52V16.48l8-6.4v31.84l-8-6.4z"/><rect x="1" y="7" width="46" height="38" rx="3"/><rect x="9.5" y="16.5" width="29" height="19" rx="1.5"/><path d="M12 1h24a3 3 0 0 1 3 3v3H9V4a3 3 0 0 1 3-3zm1 48h22v-4H13z"/><path fill-rule="evenodd" clip-rule="evenodd" d="M18.01 26c0 9.574-8.01 9-8.01 9v-5s2.914 0 2.914-4S10 22 10 22v-5s8.01-.574 8.01 9zM30 26c0 9.574 8.01 9 8.01 9v-5s-2.914 0-2.914-4 2.914-4 2.914-4v-5S30 16.426 30 26z"/></symbol><symbol viewBox="0 0 60 50" id="icn9" xmlns="http://www.w3.org/2000/svg"><path d="M39.825 39a1 1 0 0 1 .7.287l8.48 8.329V40a1 1 0 0 1 1-1h5.119a3 3 0 0 0 3-2.968l.237-22a3 3 0 0 0-3-3.032H23.72a3 3 0 0 0-3 3v22a3 3 0 0 0 3 3h16.105z"/><path fill-rule="evenodd" clip-rule="evenodd" d="M50 29.375c0-.207-.056-.375-.124-.375h-3.752c-.068 0-.124.174-.124.375 0 .207.056.375.124.375h3.752c.068 0 .124-.174.124-.375m0-5c0-.207-.06-.375-.139-.375H42.14c-.077 0-.139.174-.139.375 0 .207.06.375.139.375h7.722c.077 0 .139-.174.139-.375m-.001-5c0-.207-.06-.375-.139-.375H42.14c-.077 0-.139.174-.139.375 0 .207.06.375.139.375h7.722c.077 0 .139-.174.139-.375M.72 4.043A4 4 0 0 1 4.72 0h31.641a4 4 0 0 1 4 4v22a4 4 0 0 1-4 4H20.256l-10.18 10V30h-5.12a4 4 0 0 1-4-3.957l-.237-22z"/><rect x="9" y="20" width="12" height="1" rx=".5"/><rect x="9" y="15" width="22" height="1" rx=".5"/><rect x="9" y="10" width="22" height="1" rx=".5"/></symbol><symbol viewBox="0 0 22 22" id="icn_10" xmlns="http://www.w3.org/2000/svg"><g fill-rule="evenodd" clip-rule="evenodd"><path d="M5 19A5 5 0 1 0 5 9a5 5 0 0 0 0 10z"/><path d="M10.842 10.947c3.104 0 5.596-2.437 5.596-5.473C16.438 2.437 13.947 0 10.842 0S5.245 2.472 5.245 5.509c0 3.001 2.492 5.438 5.597 5.438zm0-10.205c2.671 0 4.874 2.154 4.874 4.767 0 2.613-2.203 4.732-4.874 4.732-2.672 0-4.874-2.119-4.874-4.732S8.17.742 10.842.742zM2.888 22h18.196c.47 0 .83-.424.758-.883-1.191-5.226-5.126-9.04-9.856-9.04-4.73 0-8.665 3.814-9.82 9.04-.108.46.253.883.722.883zm9.098-9.217c4.26 0 8.015 3.496 9.134 8.475v.036H2.852v-.036c1.119-4.979 4.874-8.475 9.134-8.475z"/></g></symbol></svg>